<?xml version="1.0" encoding="utf-8"?>
<!-- Generator: Adobe Illustrator 22.0.1, SVG Export Plug-In . SVG Version: 6.00 Build 0)  -->
<svg version="1.1" xmlns="http://www.w3.org/2000/svg" xmlns:xlink="http://www.w3.org/1999/xlink" x="0px" y="0px"
	 viewBox="0 0 24 24" style="enable-background:new 0 0 24 24;" xml:space="preserve">
<style type="text/css">
	.st0{fill:none;}
</style>
<g id="Capa_2">
	<rect class="st0" width="24" height="24"/>
	<rect class="st0" width="24" height="24"/>
</g>
<g id="Capa_2_1_">
	<g>
		<path d="M16.8,8.4c-0.1-0.4-0.5-0.6-0.9-0.6H8.2C7.8,7.7,7.4,8,7.3,8.4l-1.2,3H3.8v2h0.9c-0.1,0.2-0.1,0.4-0.1,0.6v4
			c0,0.7,0.4,1.2,0.9,1.5v2.2h2v-2h9.1v2h2v-2.2c0.5-0.3,0.9-0.8,0.9-1.5v-4c0-0.2,0-0.4-0.1-0.6h0.9v-2H18L16.8,8.4z M17.4,17.7
			H6.6v-3.5h10.8V17.7z M8.9,9.7h6.3l1,2.6H7.9L8.9,9.7z"/>
		<path d="M12.1,4.4l7.5,3.8l0.9-1.8l-8-4c-0.3-0.1-0.6-0.1-0.9,0l-8.2,4l0.9,1.8L12.1,4.4z"/>
	</g>
</g>
</svg>
